<?xml version="1.0" standalone="no"?><!DOCTYPE svg PUBLIC "-//W3C//DTD SVG 1.1//EN" "http://www.w3.org/Graphics/SVG/1.1/DTD/svg11.dtd"><svg t="1595060861544" class="icon" viewBox="0 0 1024 1024" version="1.1" xmlns="http://www.w3.org/2000/svg" p-id="6460" data-spm-anchor-id="a313x.7781069.0.i29" xmlns:xlink="http://www.w3.org/1999/xlink" width="300" height="300"><defs><style type="text/css"></style></defs><path d="M512.3 512.3m-448 0a448 448 0 1 0 896 0 448 448 0 1 0-896 0Z" fill="#f4ea2a" p-id="6461" data-spm-anchor-id="a313x.7781069.0.i27" class="selected"></path><path d="M703 749.4c-11.5 0-23-4.4-31.8-13.2L481 546c-8.4-8.4-13.1-19.8-13.2-31.7l-0.8-279.6c-0.1-24.9 20-45.1 44.9-45.1h0.1c24.8 0 44.9 20.1 45 44.9l0.7 261.1 177.1 177.1c17.6 17.6 17.6 46.1 0 63.6-8.8 8.7-20.3 13.1-31.8 13.1z" fill="#FFFFFF" p-id="6462" data-spm-anchor-id="a313x.7781069.0.i28" class=""></path></svg>