<?xml version="1.0" standalone="no"?><!DOCTYPE svg PUBLIC "-//W3C//DTD SVG 1.1//EN" "http://www.w3.org/Graphics/SVG/1.1/DTD/svg11.dtd"><svg t="1595857793448" class="icon" viewBox="0 0 1024 1024" version="1.1" xmlns="http://www.w3.org/2000/svg" p-id="3001" xmlns:xlink="http://www.w3.org/1999/xlink" width="300" height="300"><defs><style type="text/css"></style></defs><path d="M512 512m-512 0a512 512 0 1 0 1024 0 512 512 0 1 0-1024 0Z" fill="#111111" opacity=".5" p-id="3002"></path><path d="M512 0C230.4 0 0 230.4 0 512s230.4 512 512 512 512-230.4 512-512S793.6 0 512 0z m0 960C264.533333 960 64 759.466667 64 512S264.533333 64 512 64 960 264.533333 960 512 759.466667 960 512 960z" fill="#FFFFFF" p-id="3003"></path><path d="M456.533333 307.2c-12.8-12.8-34.133333-12.8-46.933333 0s-12.8 34.133333 0 46.933333l157.866667 157.866667-157.866667 157.866667c-12.8 12.8-12.8 34.133333 0 46.933333 8.533333 8.533333 17.066667 8.533333 25.6 8.533333s17.066667-4.266667 21.333333-8.533333l183.466667-183.466667c12.8-12.8 12.8-34.133333 0-46.933333l-183.466667-179.2z" fill="#FFFFFF" p-id="3004"></path></svg>